<?xml version="1.0" standalone="no"?>
<!DOCTYPE svg PUBLIC "-//W3C//DTD SVG 20010904//EN"
 "http://www.w3.org/TR/2001/REC-SVG-20010904/DTD/svg10.dtd">
<svg version="1.0" xmlns="http://www.w3.org/2000/svg"
 width="1280.000000pt" height="1249.000000pt" viewBox="0 0 1280.000000 1249.000000"
 preserveAspectRatio="xMidYMid meet">
<g transform="translate(0.000000,1249.000000) scale(0.100000,-0.100000)"
fill="#000000" stroke="none">
<path d="M6125 12479 c-49 -4 -180 -15 -290 -24 -1168 -95 -2337 -531 -3265
-1218 -52 -39 -110 -81 -128 -93 l-32 -22 -108 34 c-784 250 -1123 348 -1280
368 -47 6 -55 4 -77 -18 -32 -33 -32 -58 6 -177 41 -130 36 -153 -41 -191 -87
-42 -75 -56 84 -102 104 -31 465 -109 791 -172 126 -25 233 -48 238 -53 5 -5
-81 -98 -190 -207 -653 -653 -1131 -1397 -1449 -2252 -184 -493 -314 -1088
-354 -1612 -6 -80 -15 -192 -20 -250 -6 -58 -10 -168 -10 -245 0 -77 4 -187
10 -245 5 -58 14 -170 20 -250 130 -1729 1040 -3369 2465 -4440 978 -735 2135
-1176 3350 -1275 105 -8 240 -20 301 -25 141 -13 367 -13 508 0 61 5 197 17
301 25 2195 179 4150 1471 5153 3405 369 712 603 1527 662 2310 6 80 15 192
20 250 6 58 10 168 10 245 0 77 -4 187 -10 245 -5 58 -14 170 -20 250 -113
1497 -820 2954 -1942 4001 -1065 993 -2429 1598 -3863 1714 -104 8 -244 20
-310 25 -136 12 -397 11 -530 -1z m-2369 -1025 c100 -20 229 -66 335 -119 l86
-43 37 -82 c72 -158 94 -314 60 -417 -27 -82 -9 -79 -306 -54 -145 12 -306 24
-358 27 -52 3 -128 15 -169 26 -127 34 -472 147 -486 158 -12 10 -10 21 11 68
102 231 272 388 473 437 77 18 226 18 317 -1z m-563 -849 c383 -68 519 -97
524 -111 4 -12 -69 -24 -144 -24 l-43 0 0 -411 0 -411 243 -246 c134 -136
1035 -1057 2002 -2047 967 -990 1797 -1840 1846 -1889 l87 -89 69 44 c107 69
255 221 292 299 35 73 41 156 17 214 -20 47 -80 111 -147 157 -119 81 -186
213 -226 449 -20 119 -22 466 -4 630 86 781 369 1468 676 1641 l56 32 -116 48
c-321 133 -609 331 -885 608 -207 208 -330 382 -330 467 0 41 7 42 89 14 207
-69 749 -131 2031 -230 723 -56 1030 -84 1105 -103 48 -12 50 -14 47 -43 -2
-26 8 -45 57 -106 113 -141 335 -344 991 -908 434 -373 530 -459 530 -476 0
-6 -69 -10 -176 -11 -110 -1 -180 -5 -187 -12 -8 -8 5 -92 41 -288 95 -507
150 -846 177 -1105 26 -255 18 -329 -38 -353 -18 -7 -81 -18 -142 -25 -60 -6
-141 -18 -178 -27 -38 -8 -71 -12 -75 -9 -3 4 2 82 11 174 93 915 97 960 97
1186 0 311 -44 410 -204 467 -33 11 -163 38 -290 59 -246 41 -332 58 -459 91
-44 11 -81 19 -82 17 -2 -2 -8 -73 -14 -158 -75 -1013 -285 -1722 -629 -2125
-116 -135 -230 -217 -477 -342 -93 -47 -187 -99 -207 -115 -52 -41 -78 -100
-78 -179 0 -116 8 -138 58 -173 353 -242 1548 -1338 2178 -1998 278 -291 384
-407 384 -421 0 -12 -71 -113 -174 -247 -492 -638 -1115 -1188 -1820 -1602
-178 -105 -549 -293 -724 -366 -668 -281 -1338 -444 -2077 -503 -202 -17 -753
-17 -950 0 -712 58 -1337 204 -1975 461 -196 78 -632 293 -815 400 -307 181
-651 425 -912 647 -67 57 -125 107 -128 112 -11 19 131 886 276 1681 111 607
301 1581 479 2444 48 236 57 358 41 551 -38 441 -145 939 -416 1945 -213 786
-273 1049 -282 1222 -9 162 0 173 172 218 103 27 187 73 243 134 97 106 184
328 202 513 19 204 37 283 61 283 6 0 151 -25 322 -55z"/>
</g>
</svg>
